# xmcd CD database file
#
# Track frame offsets:
#	150
#	19860
#	39120
#
# Disc length: 752 seconds
#
# Revision: 0
# Processed by: cddbd v1.5PL3 Copyright (c) Steve Scherf et al.
# Submitted via: CDex 1.51
#
DISCID=1602ee03
DTITLE=三浦恵里子 - "Very Happy"
DYEAR=2000
DGENRE=Pop
TTITLE0=Very Happy
TTITLE1=CANDY I LOVE YOU
TTITLE2=悲しみを風に乗せて
EXTD=YEAR: 2000
EXTT0=
EXTT1=
EXTT2=
PLAYORDER=
